<!--?xml version="1.0" encoding="utf-8"?-->
<!-- Svg Vector Icons : http://www.onlinewebfonts.com/icon -->

<svg version="1.1" xmlns="http://www.w3.org/2000/svg" xmlns:xlink="http://www.w3.org/1999/xlink" x="0px" y="0px" viewBox="0 0 256 256" enable-background="new 0 0 256 256" xml:space="preserve">
<metadata> Svg Vector Icons : http://www.onlinewebfonts.com/icon </metadata>
<g><g><g><path fill="#e2cf7d" data-title="Layer 0" xs="0" d="M164.9,57.9c10.2,0,18.4-8.3,18.4-18.4c0-8.9-6.3-16.4-14.8-18.1v-4c0-4.1-3.3-7.4-7.4-7.4H94.8c-4.1,0-7.4,3.3-7.4,7.4v4c-8.4,1.7-14.7,9.2-14.7,18.1c0,10.2,8.3,18.4,18.4,18.4c2.6,0,5.1-0.6,7.4-1.5v5.2c-2,0-3.7,1.7-3.7,3.7c0,2,1.7,3.7,3.7,3.7v136.4c-2,0-3.7,1.7-3.7,3.7s1.6,3.7,3.6,3.7c-0.4,14-3.1,22.3-8.4,25.8h-6.3c-2,0-3.7,1.7-3.7,3.7c0,2,1.7,3.7,3.7,3.7h7.4l0,0l0,0h73.7l0,0l0,0h7.4c2,0,3.7-1.7,3.7-3.7c0-2-1.7-3.7-3.7-3.7h-6.3c-5.3-3.5-8-11.8-8.4-25.8c2,0,3.6-1.7,3.6-3.7c0-2-1.7-3.7-3.7-3.7V69c2,0,3.7-1.7,3.7-3.7c0-2-1.7-3.7-3.7-3.7v-5.2C159.8,57.4,162.2,57.9,164.9,57.9z M109.2,35.8c-0.6-2.7-1.7-5.2-3.3-7.4h7.4c0,2,1.7,3.7,3.7,3.7c2,0,3.7-1.7,3.7-3.7h3.7c0,2,1.7,3.7,3.7,3.7c2,0,3.7-1.7,3.7-3.7h3.7c0,2,1.7,3.7,3.7,3.7s3.7-1.7,3.7-3.7h7.4c-1.6,2.1-2.8,4.6-3.3,7.4H109.2z M175.9,39.5c0,6.1-5,11.1-11.1,11.1c-6.1,0-11.1-5-11.1-11.1c0-6.1,5-11.1,11.1-11.1C171,28.4,175.9,33.4,175.9,39.5z M161.2,17.4v3.7H94.8v-3.7H161.2z M80.1,39.5c0-6.1,5-11.1,11.1-11.1c6.1,0,11.1,5,11.1,11.1c0,6.1-5,11.1-11.1,11.1C85,50.6,80.1,45.6,80.1,39.5z M100.1,238.6c1.3-2,2.4-4.4,3.2-7.2c0.7-2.3,1.3-4.8,1.7-7.6h23c2,0,3.7-1.7,3.7-3.7c0-2-1.7-3.7-3.7-3.7h-22.3c0.1-1.2,0.1-2.4,0.1-3.7h44.3c0,1.2,0.1,2.5,0.1,3.7h-7.6c-2,0-3.7,1.7-3.7,3.7c0,2,1.7,3.7,3.7,3.7h8.3c0.8,5.4,2.3,10.6,4.9,14.8H100.1z M142.8,69h7.4v136.4h-44.3V69H128c2,0,3.7-1.7,3.7-3.7c0-2-1.7-3.7-3.7-3.7h-22.1V50.6l0,0c1.6-2.1,2.8-4.6,3.3-7.4h37.6c0.6,2.7,1.7,5.2,3.3,7.4l0,0v11.1h-7.4c-2,0-3.7,1.7-3.7,3.7C139.1,67.3,140.7,69,142.8,69z"/><path fill="#e2cf7d" data-title="Layer 1" xs="1" d="M91.1,35.8c-1,0-1.9,0.4-2.6,1.1c-0.7,0.7-1.1,1.6-1.1,2.6c0,1,0.4,1.9,1.1,2.6c0.7,0.7,1.6,1.1,2.6,1.1c1,0,1.9-0.4,2.6-1.1c0.7-0.7,1.1-1.6,1.1-2.6c0-1-0.4-1.9-1.1-2.6C93.1,36.2,92.1,35.8,91.1,35.8z"/><path fill="#e2cf7d" data-title="Layer 2" xs="2" d="M162.3,36.9c-0.7,0.7-1.1,1.6-1.1,2.6c0,1,0.4,1.9,1.1,2.6c0.7,0.7,1.6,1.1,2.6,1.1c1,0,1.9-0.4,2.6-1.1c0.7-0.7,1.1-1.6,1.1-2.6c0-1-0.4-1.9-1.1-2.6c-0.7-0.7-1.6-1.1-2.6-1.1C163.9,35.8,162.9,36.2,162.3,36.9z"/><path fill="#e2cf7d" data-title="Layer 3" xs="3" d="M128,46.9c-2,0-3.7,1.7-3.7,3.7v3.7c0,2,1.7,3.7,3.7,3.7c2,0,3.7-1.7,3.7-3.7v-3.7C131.7,48.5,130,46.9,128,46.9z"/><path fill="#e2cf7d" data-title="Layer 4" xs="4" d="M142.8,54.3v-3.7c0-2-1.7-3.7-3.7-3.7s-3.7,1.7-3.7,3.7v3.7c0,2,1.7,3.7,3.7,3.7S142.8,56.3,142.8,54.3z"/><path fill="#e2cf7d" data-title="Layer 5" xs="5" d="M116.9,46.9c-2,0-3.7,1.7-3.7,3.7v3.7c0,2,1.7,3.7,3.7,3.7c2,0,3.7-1.7,3.7-3.7v-3.7C120.6,48.5,119,46.9,116.9,46.9z"/><path fill="#e2cf7d" data-title="Layer 6" xs="6" d="M113.2,76.4c-2,0-3.7,1.7-3.7,3.7v114.3c0,2,1.7,3.7,3.7,3.7s3.7-1.7,3.7-3.7V80.1C116.9,78,115.3,76.4,113.2,76.4z"/><path fill="#e2cf7d" data-title="Layer 7" xs="7" d="M128,76.4c-2,0-3.7,1.7-3.7,3.7v114.3c0,2,1.7,3.7,3.7,3.7c2,0,3.7-1.7,3.7-3.7V80.1C131.7,78,130,76.4,128,76.4z"/><path fill="#e2cf7d" data-title="Layer 8" xs="8" d="M142.8,198.1c2,0,3.7-1.7,3.7-3.7V80.1c0-2-1.7-3.7-3.7-3.7c-2,0-3.7,1.7-3.7,3.7v114.3C139.1,196.4,140.7,198.1,142.8,198.1z"/></g><g></g><g></g><g></g><g></g><g></g><g></g><g></g><g></g><g></g><g></g><g></g><g></g><g></g><g></g><g></g></g></g>
</svg>